<svg xmlns="http://www.w3.org/2000/svg" xmlns:svg="http://www.w3.org/2000/svg" id="svg10" version="1.1" viewBox="0 0 229.77 229.77"><title id="title3707">SWUpdate Logo</title><metadata id="metadata16"/><g id="Layer_2" data-name="Layer 2"><g id="Layer_1-2" data-name="Layer 1"><path id="path4" d="M114.89,0A114.89,114.89,0,1,0,229.77,114.89,115,115,0,0,0,114.89,0Zm0,226.77A111.89,111.89,0,1,1,226.77,114.89,112,112,0,0,1,114.89,226.77Z"/><path id="path6" d="M184.36,52.55h-55a2.92,2.92,0,0,0-2.92,2.92V92.41a28.54,28.54,0,0,1-6.79,18.47L99.11,135a28.2,28.2,0,0,0-6.71,18.25v37.29a69.36,69.36,0,0,1-46.86-65.63V55.55h72.87V93.91a18.31,18.31,0,0,1-4.83,12.4L96,126.1a2.82,2.82,0,1,0,2.24,2l17.55-19.77a21.3,21.3,0,0,0,5.6-14.41V55.42a2.87,2.87,0,0,0-2.87-2.87H45.46a2.92,2.92,0,0,0-2.92,2.92v69.45a72.36,72.36,0,0,0,49,68.51,2.92,2.92,0,0,0,3.84-2.77v-37.4a25.2,25.2,0,0,1,6-16.31l20.51-24.12a31.55,31.55,0,0,0,7.51-20.42V55.55h54.86v69.37a69.31,69.31,0,0,1-80.87,68.4V153.25a17.2,17.2,0,0,1,4.09-11.13L128,118a39.55,39.55,0,0,0,9.41-25.6v-25a2.82,2.82,0,1,0-3,0v25a36.55,36.55,0,0,1-8.7,23.65l-20.51,24.12a20.2,20.2,0,0,0-4.81,13.07v40.12a2.91,2.91,0,0,0,2.43,2.88,72.32,72.32,0,0,0,84.45-71.34V55.46A2.92,2.92,0,0,0,184.36,52.55Z"/></g></g></svg>